{
  "accessors": [
    {
      "bufferView": 2,
      "componentType": 5126,
      "count": 425,
      "max": [
        4.905703544616699,
        5.867298126220703,
        0.19469505548477173
      ],
      "min": [
        -5.874215126037598,
        -4.912622451782227,
        0.0
      ],
      "type": "VEC3"
    },
    {
      "bufferView": 2,
      "byteOffset": 5100,
      "componentType": 5126,
      "count": 425,
      "max": [
        1.0,
        1.0,
        1.0
      ],
      "min": [
        -1.0,
        -1.0,
        -0.008379991166293621
      ],
      "type": "VEC3"
    },
    {
      "bufferView": 1,
      "componentType": 5126,
      "count": 425,
      "max": [
        1.000167727470398,
        1.0017588138580322
      ],
      "min": [
        0.003657861612737179,
        0.005093218758702278
      ],
      "type": "VEC2"
    },
    {
      "bufferView": 1,
      "byteOffset": 3400,
      "componentType": 5126,
      "count": 425,
      "max": [
        0.7865929007530212,
        0.8501737713813782
      ],
      "min": [
        0.060067471116781235,
        0.49686163663864136
      ],
      "type": "VEC2"
    },
    {
      "bufferView": 0,
      "componentType": 5125,
      "count": 1266,
      "type": "SCALAR"
    },
    {
      "bufferView": 2,
      "byteOffset": 10200,
      "componentType": 5126,
      "count": 4366,
      "max": [
        1.3361485004425049,
        1.3361494541168213,
        24.805339813232422
      ],
      "min": [
        -13.245491981506348,
        -17.21110725402832,
        -3.2006646506488323e-06
      ],
      "type": "VEC3"
    },
    {
      "bufferView": 2,
      "byteOffset": 62592,
      "componentType": 5126,
      "count": 4366,
      "max": [
        1.0,
        1.0,
        1.0
      ],
      "min": [
        -1.0,
        -1.0,
        -0.9999810457229614
      ],
      "type": "VEC3"
    },
    {
      "bufferView": 1,
      "byteOffset": 6800,
      "componentType": 5126,
      "count": 4366,
      "max": [
        0.9566695094108582,
        0.9999082684516907
      ],
      "min": [
        0.0005410461453720927,
        0.4997495114803314
      ],
      "type": "VEC2"
    },
    {
      "bufferView": 1,
      "byteOffset": 41728,
      "componentType": 5126,
      "count": 4366,
      "max": [
        0.9991142153739929,
        0.9992086887359619
      ],
      "min": [
        0.0007888052496127784,
        0.0007913447916507721
      ],
      "type": "VEC2"
    },
    {
      "bufferView": 0,
      "byteOffset": 5064,
      "componentType": 5125,
      "count": 14388,
      "type": "SCALAR"
    },
    {
      "bufferView": 2,
      "byteOffset": 114984,
      "componentType": 5126,
      "count": 533,
      "max": [
        14.796415328979492,
        12.559928894042969,
        18.805030822753906
      ],
      "min": [
        -15.643986701965332,
        -9.924013137817383,
        -0.01848788745701313
      ],
      "type": "VEC3"
    },
    {
      "bufferView": 2,
      "byteOffset": 121380,
      "componentType": 5126,
      "count": 533,
      "max": [
        1.0,
        1.0,
        0.9999983906745911
      ],
      "min": [
        -1.0,
        -1.0,
        -1.0
      ],
      "type": "VEC3"
    },
    {
      "bufferView": 1,
      "byteOffset": 76656,
      "componentType": 5126,
      "count": 533,
      "max": [
        0.9940581917762756,
        0.9195473194122314
      ],
      "min": [
        0.00048130773939192295,
        4.8160552978515625e-05
      ],
      "type": "VEC2"
    },
    {
      "bufferView": 1,
      "byteOffset": 80920,
      "componentType": 5126,
      "count": 533,
      "max": [
        0.9992112517356873,
        0.9898979663848877
      ],
      "min": [
        0.05653101205825806,
        0.1296369433403015
      ],
      "type": "VEC2"
    },
    {
      "bufferView": 0,
      "byteOffset": 62616,
      "componentType": 5125,
      "count": 813,
      "type": "SCALAR"
    },
    {
      "bufferView": 2,
      "byteOffset": 127776,
      "componentType": 5126,
      "count": 198,
      "max": [
        1.5804098844528198,
        1.9453611373901367,
        1.0
      ],
      "min": [
        -1.5804098844528198,
        -1.0011687278747559,
        -1.0020017623901367
      ],
      "type": "VEC3"
    },
    {
      "bufferView": 2,
      "byteOffset": 130152,
      "componentType": 5126,
      "count": 198,
      "max": [
        1.0,
        1.0,
        1.0
      ],
      "min": [
        -1.0,
        -0.9752897620201111,
        -1.0
      ],
      "type": "VEC3"
    },
    {
      "bufferView": 1,
      "byteOffset": 85184,
      "componentType": 5126,
      "count": 198,
      "max": [
        0.997520387172699,
        0.9993927478790283
      ],
      "min": [
        0.18203899264335632,
        0.2013891339302063
      ],
      "type": "VEC2"
    },
    {
      "bufferView": 1,
      "byteOffset": 86768,
      "componentType": 5126,
      "count": 198,
      "max": [
        0.951073944568634,
        0.9721872210502625
      ],
      "min": [
        0.09952156245708466,
        0.42403388023376465
      ],
      "type": "VEC2"
    },
    {
      "bufferView": 0,
      "byteOffset": 65868,
      "componentType": 5125,
      "count": 678,
      "type": "SCALAR"
    },
    {
      "bufferView": 2,
      "byteOffset": 132528,
      "componentType": 5126,
      "count": 192,
      "max": [
        1.589202880859375,
        1.9819231033325195,
        0.13198791444301605
      ],
      "min": [
        -1.589202880859375,
        -1.0003541707992554,
        -0.6605036854743958
      ],
      "type": "VEC3"
    },
    {
      "bufferView": 2,
      "byteOffset": 134832,
      "componentType": 5126,
      "count": 192,
      "max": [
        1.0,
        1.0,
        1.0
      ],
      "min": [
        -1.0,
        -0.989944577217102,
        -1.0
      ],
      "type": "VEC3"
    },
    {
      "bufferView": 1,
      "byteOffset": 88352,
      "componentType": 5126,
      "count": 192,
      "max": [
        0.9969371557235718,
        0.9989786148071289
      ],
      "min": [
        0.171250581741333,
        0.3599199652671814
      ],
      "type": "VEC2"
    },
    {
      "bufferView": 1,
      "byteOffset": 89888,
      "componentType": 5126,
      "count": 192,
      "max": [
        0.9309665560722351,
        0.9972575902938843
      ],
      "min": [
        0.05048827454447746,
        0.1976427137851715
      ],
      "type": "VEC2"
    },
    {
      "bufferView": 0,
      "byteOffset": 68580,
      "componentType": 5125,
      "count": 678,
      "type": "SCALAR"
    },
    {
      "bufferView": 2,
      "byteOffset": 137136,
      "componentType": 5126,
      "count": 192,
      "max": [
        1.5804098844528198,
        1.9453611373901367,
        1.0
      ],
      "min": [
        -1.5804098844528198,
        -1.0011687278747559,
        -1.0020017623901367
      ],
      "type": "VEC3"
    },
    {
      "bufferView": 2,
      "byteOffset": 139440,
      "componentType": 5126,
      "count": 192,
      "max": [
        1.0,
        1.0,
        1.0
      ],
      "min": [
        -1.0,
        -0.9752897620201111,
        -1.0
      ],
      "type": "VEC3"
    },
    {
      "bufferView": 1,
      "byteOffset": 91424,
      "componentType": 5126,
      "count": 192,
      "max": [
        0.997520387172699,
        0.9993927478790283
      ],
      "min": [
        0.18203899264335632,
        0.2013891339302063
      ],
      "type": "VEC2"
    },
    {
      "bufferView": 1,
      "byteOffset": 92960,
      "componentType": 5126,
      "count": 192,
      "max": [
        0.8467215895652771,
        0.9761330485343933
      ],
      "min": [
        0.0628122016787529,
        0.598354160785675
      ],
      "type": "VEC2"
    },
    {
      "bufferView": 0,
      "byteOffset": 71292,
      "componentType": 5125,
      "count": 678,
      "type": "SCALAR"
    },
    {
      "bufferView": 2,
      "byteOffset": 141744,
      "componentType": 5126,
      "count": 86,
      "max": [
        3.938244104385376,
        1.5814251899719238,
        7.566440582275391
      ],
      "min": [
        -3.9382433891296387,
        -1.4398274421691895,
        -7.238590240478516
      ],
      "type": "VEC3"
    },
    {
      "bufferView": 2,
      "byteOffset": 142776,
      "componentType": 5126,
      "count": 86,
      "max": [
        0.7189893126487732,
        0.9993022680282593,
        0.010590111836791039
      ],
      "min": [
        -0.7454426884651184,
        0.6598533391952515,
        -0.2693014442920685
      ],
      "type": "VEC3"
    },
    {
      "bufferView": 1,
      "byteOffset": 94496,
      "componentType": 5126,
      "count": 86,
      "max": [
        0.9940581321716309,
        0.577631413936615
      ],
      "min": [
        0.49717819690704346,
        0.00013425946235656738
      ],
      "type": "VEC2"
    },
    {
      "bufferView": 1,
      "byteOffset": 95184,
      "componentType": 5126,
      "count": 86,
      "max": [
        0.8202146887779236,
        0.7923247814178467
      ],
      "min": [
        0.12483377009630203,
        0.2641454339027405
      ],
      "type": "VEC2"
    },
    {
      "bufferView": 0,
      "byteOffset": 74004,
      "componentType": 5125,
      "count": 252,
      "type": "SCALAR"
    },
    {
      "bufferView": 2,
      "byteOffset": 143808,
      "componentType": 5126,
      "count": 2340,
      "max": [
        14.796417236328125,
        13.664899826049805,
        29.7008056640625
      ],
      "min": [
        -15.362419128417969,
        -11.080143928527832,
        -0.0023359761107712984
      ],
      "type": "VEC3"
    },
    {
      "bufferView": 2,
      "byteOffset": 171888,
      "componentType": 5126,
      "count": 2340,
      "max": [
        1.0,
        1.0,
        1.0
      ],
      "min": [
        -1.0,
        -1.0,
        -1.0
      ],
      "type": "VEC3"
    },
    {
      "bufferView": 1,
      "byteOffset": 95872,
      "componentType": 5126,
      "count": 2340,
      "max": [
        1.0820211172103882,
        0.9596741795539856
      ],
      "min": [
        -0.005199594423174858,
        -0.0066167861223220825
      ],
      "type": "VEC2"
    },
    {
      "bufferView": 1,
      "byteOffset": 114592,
      "componentType": 5126,
      "count": 2340,
      "max": [
        0.9940415620803833,
        0.9972951412200928
      ],
      "min": [
        0.0007888052496127784,
        0.0007913447916507721
      ],
      "type": "VEC2"
    },
    {
      "bufferView": 0,
      "byteOffset": 75012,
      "componentType": 5125,
      "count": 6864,
      "type": "SCALAR"
    }
  ],
  "asset": {
    "extras": {
      "author": "plasmaernst (https://sketchfab.com/plasmaernst)",
      "license": "CC-BY-4.0 (http://creativecommons.org/licenses/by/4.0/)",
      "source": "https://sketchfab.com/3d-models/round-table-room-empty-mozilla-hubs-274b152689c8457787efc366a30b2cca",
      "title": "Round Table Room / empty / Mozilla Hubs"
    },
    "generator": "Sketchfab-12.66.0",
    "version": "2.0"
  },
  "bufferViews": [
    {
      "buffer": 0,
      "byteLength": 102468,
      "name": "floatBufferViews",
      "target": 34963
    },
    {
      "buffer": 0,
      "byteLength": 133312,
      "byteOffset": 102468,
      "byteStride": 8,
      "name": "floatBufferViews",
      "target": 34962
    },
    {
      "buffer": 0,
      "byteLength": 199968,
      "byteOffset": 235780,
      "byteStride": 12,
      "name": "floatBufferViews",
      "target": 34962
    }
  ],
  "buffers": [
    {
      "byteLength": 435748,
      "uri": "scene.bin"
    }
  ],
  "images": [
    {
      "uri": "textures/stone_baseColor.jpeg"
    },
    {
      "uri": "textures/stone_metallicRoughness.png"
    }
  ],
  "materials": [
    {
      "doubleSided": true,
      "name": "stone",
      "occlusionTexture": {
        "index": 1,
        "texCoord": 1
      },
      "pbrMetallicRoughness": {
        "baseColorTexture": {
          "index": 0
        },
        "metallicFactor": 0.0,
        "metallicRoughnessTexture": {
          "index": 1,
          "texCoord": 1
        },
        "roughnessFactor": 0.8239417257
      }
    }
  ],
  "meshes": [
    {
      "name": "Podium_stone_0",
      "primitives": [
        {
          "attributes": {
            "NORMAL": 1,
            "POSITION": 0,
            "TEXCOORD_0": 2,
            "TEXCOORD_1": 3
          },
          "indices": 4,
          "material": 0,
          "mode": 4
        }
      ]
    },
    {
      "name": "Pillars_stone_0",
      "primitives": [
        {
          "attributes": {
            "NORMAL": 6,
            "POSITION": 5,
            "TEXCOORD_0": 7,
            "TEXCOORD_1": 8
          },
          "indices": 9,
          "material": 0,
          "mode": 4
        }
      ]
    },
    {
      "name": "RoomAdditions_stone_0",
      "primitives": [
        {
          "attributes": {
            "NORMAL": 11,
            "POSITION": 10,
            "TEXCOORD_0": 12,
            "TEXCOORD_1": 13
          },
          "indices": 14,
          "material": 0,
          "mode": 4
        }
      ]
    },
    {
      "name": "PassageBlock2_stone_0",
      "primitives": [
        {
          "attributes": {
            "NORMAL": 16,
            "POSITION": 15,
            "TEXCOORD_0": 17,
            "TEXCOORD_1": 18
          },
          "indices": 19,
          "material": 0,
          "mode": 4
        }
      ]
    },
    {
      "name": "PassageBlock1_stone_0",
      "primitives": [
        {
          "attributes": {
            "NORMAL": 21,
            "POSITION": 20,
            "TEXCOORD_0": 22,
            "TEXCOORD_1": 23
          },
          "indices": 24,
          "material": 0,
          "mode": 4
        }
      ]
    },
    {
      "name": "PassageBlock0_stone_0",
      "primitives": [
        {
          "attributes": {
            "NORMAL": 26,
            "POSITION": 25,
            "TEXCOORD_0": 27,
            "TEXCOORD_1": 28
          },
          "indices": 29,
          "material": 0,
          "mode": 4
        }
      ]
    },
    {
      "name": "RoomWall_stone_0",
      "primitives": [
        {
          "attributes": {
            "NORMAL": 31,
            "POSITION": 30,
            "TEXCOORD_0": 32,
            "TEXCOORD_1": 33
          },
          "indices": 34,
          "material": 0,
          "mode": 4
        }
      ]
    },
    {
      "name": "Room_stone_0",
      "primitives": [
        {
          "attributes": {
            "NORMAL": 36,
            "POSITION": 35,
            "TEXCOORD_0": 37,
            "TEXCOORD_1": 38
          },
          "indices": 39,
          "material": 0,
          "mode": 4
        }
      ]
    }
  ],
  "nodes": [
    {
      "children": [
        1
      ],
      "matrix": [
        1.0,
        0.0,
        0.0,
        0.0,
        0.0,
        2.220446049250313e-16,
        -1.0,
        0.0,
        0.0,
        1.0,
        2.220446049250313e-16,
        0.0,
        0.0,
        0.0,
        0.0,
        1.0
      ],
      "name": "Sketchfab_model"
    },
    {
      "children": [
        2
      ],
      "matrix": [
        1.0,
        0.0,
        0.0,
        0.0,
        0.0,
        0.0,
        1.0,
        0.0,
        0.0,
        -1.0,
        0.0,
        0.0,
        0.0,
        0.0,
        0.0,
        1.0
      ],
      "name": "d1e9f150d3ce46c1b0c937f78857182a.fbx"
    },
    {
      "children": [
        3,
        5,
        7,
        9,
        11,
        13,
        15,
        17
      ],
      "name": "RootNode"
    },
    {
      "children": [
        4
      ],
      "matrix": [
        100.0,
        0.0,
        0.0,
        0.0,
        0.0,
        -1.629206793918314e-05,
        -99.99999999999868,
        0.0,
        0.0,
        99.99999999999868,
        -1.629206793918314e-05,
        0.0,
        0.0,
        0.0,
        0.0,
        1.0
      ],
      "name": "Podium"
    },
    {
      "mesh": 0,
      "name": "Podium_stone_0"
    },
    {
      "children": [
        6
      ],
      "matrix": [
        3.13916478589249e-05,
        5.551115123125783e-15,
        99.99999999999508,
        0.0,
        99.99999999999109,
        -2.8212996916465727e-05,
        -3.13916478589249e-05,
        0.0,
        2.8212996927567957e-05,
        99.99999999999602,
        -8.881784197001252e-12,
        0.0,
        742.5638427734375,
        -100.01704406738281,
        318.04742431640625,
        1.0
      ],
      "name": "Pillars"
    },
    {
      "mesh": 1,
      "name": "Pillars_stone_0"
    },
    {
      "children": [
        8
      ],
      "matrix": [
        100.0,
        0.0,
        0.0,
        0.0,
        0.0,
        -1.629206793918314e-05,
        -99.99999999999868,
        0.0,
        0.0,
        99.99999999999868,
        -1.629206793918314e-05,
        0.0,
        0.0,
        0.0,
        0.0,
        1.0
      ],
      "name": "RoomAdditions"
    },
    {
      "mesh": 2,
      "name": "RoomAdditions_stone_0"
    },
    {
      "children": [
        10
      ],
      "matrix": [
        -122.14457379450018,
        3.1462780581357013,
        0.24431297886798162,
        0.0,
        1.024920116994595,
        32.44472367827093,
        94.58485897706346,
        0.0,
        2.370690241881426,
        94.55534882558138,
        -32.46028979979876,
        0.0,
        -209.75396728515625,
        479.0196838378906,
        994.4503784179688,
        1.0
      ],
      "name": "PassageBlock2"
    },
    {
      "mesh": 3,
      "name": "PassageBlock2_stone_0"
    },
    {
      "children": [
        12
      ],
      "matrix": [
        100.0,
        0.0,
        0.0,
        0.0,
        -0.0,
        -1.629206793918314e-05,
        -99.99999999999868,
        0.0,
        0.0,
        99.99999999999868,
        -1.629206793918314e-05,
        0.0,
        -46.7050895690918,
        539.5271606445313,
        -1181.776611328125,
        1.0
      ],
      "name": "PassageBlock1"
    },
    {
      "mesh": 4,
      "name": "PassageBlock1_stone_0"
    },
    {
      "children": [
        14
      ],
      "matrix": [
        100.0,
        0.0,
        0.0,
        0.0,
        -0.0,
        -1.629206793918314e-05,
        -99.99999999999868,
        0.0,
        0.0,
        99.99999999999868,
        -1.629206793918314e-05,
        0.0,
        -44.70282745361328,
        1740.9749755859375,
        -1173.3072509765625,
        1.0
      ],
      "name": "PassageBlock0"
    },
    {
      "mesh": 5,
      "name": "PassageBlock0_stone_0"
    },
    {
      "children": [
        16
      ],
      "matrix": [
        -7.227234121804305,
        1.4999185227182465e-05,
        99.73849350651132,
        0.0,
        99.73849350645274,
        0.00011049966071041695,
        7.227234121783449,
        0.0,
        -0.00010912667067208837,
        99.9999999999378,
        -2.2946030542314588e-05,
        0.0,
        -1425.9454345703125,
        1123.859130859375,
        -66.16221618652344,
        1.0
      ],
      "name": "RoomWall"
    },
    {
      "mesh": 6,
      "name": "RoomWall_stone_0"
    },
    {
      "children": [
        18
      ],
      "matrix": [
        100.0,
        0.0,
        0.0,
        0.0,
        0.0,
        -1.629206793918314e-05,
        -99.99999999999868,
        0.0,
        0.0,
        99.99999999999868,
        -1.629206793918314e-05,
        0.0,
        0.0,
        0.0,
        0.0,
        1.0
      ],
      "name": "Room"
    },
    {
      "mesh": 7,
      "name": "Room_stone_0"
    }
  ],
  "samplers": [
    {
      "magFilter": 9729,
      "minFilter": 9987,
      "wrapS": 10497,
      "wrapT": 10497
    }
  ],
  "scene": 0,
  "scenes": [
    {
      "name": "Sketchfab_Scene",
      "nodes": [
        0
      ]
    }
  ],
  "textures": [
    {
      "sampler": 0,
      "source": 0
    },
    {
      "sampler": 0,
      "source": 1
    }
  ]
}
