{
  "accessors": [
    {
      "bufferView": 2,
      "componentType": 5126,
      "count": 5408,
      "max": [
        1.7572526931762695,
        7.667562484741211,
        1.7831666469573975
      ],
      "min": [
        -1.7572526931762695,
        0.0,
        -1.5831114053726196
      ],
      "type": "VEC3"
    },
    {
      "bufferView": 2,
      "byteOffset": 64896,
      "componentType": 5126,
      "count": 5408,
      "max": [
        1.0,
        1.0,
        1.0
      ],
      "min": [
        -1.0,
        -1.0,
        -1.0
      ],
      "type": "VEC3"
    },
    {
      "bufferView": 3,
      "componentType": 5126,
      "count": 5408,
      "max": [
        1.0,
        1.0,
        1.0,
        1.0
      ],
      "min": [
        -1.0,
        -1.0,
        -1.0,
        1.0
      ],
      "type": "VEC4"
    },
    {
      "bufferView": 1,
      "componentType": 5126,
      "count": 5408,
      "max": [
        0.9915511012077332,
        0.9921875
      ],
      "min": [
        0.0078125,
        0.0078125
      ],
      "type": "VEC2"
    },
    {
      "bufferView": 0,
      "componentType": 5125,
      "count": 22398,
      "type": "SCALAR"
    },
    {
      "bufferView": 2,
      "byteOffset": 129792,
      "componentType": 5126,
      "count": 400,
      "max": [
        0.9887360334396362,
        5.0055999755859375,
        0.9887359142303467
      ],
      "min": [
        -0.9887357354164124,
        2.288271188735962,
        -0.988735556602478
      ],
      "type": "VEC3"
    },
    {
      "bufferView": 2,
      "byteOffset": 134592,
      "componentType": 5126,
      "count": 400,
      "max": [
        0.9994840025901794,
        0.5100484490394592,
        0.9994840025901794
      ],
      "min": [
        -0.9994840621948242,
        -0.7086002230644226,
        -0.9994840025901794
      ],
      "type": "VEC3"
    },
    {
      "bufferView": 3,
      "byteOffset": 86528,
      "componentType": 5126,
      "count": 400,
      "max": [
        1.0,
        0.06554074585437775,
        1.0,
        1.0
      ],
      "min": [
        -1.0,
        -0.06554080545902252,
        -1.0,
        1.0
      ],
      "type": "VEC4"
    },
    {
      "bufferView": 1,
      "byteOffset": 43264,
      "componentType": 5126,
      "count": 400,
      "max": [
        0.9921875,
        0.5283610820770264
      ],
      "min": [
        0.0078125,
        0.0078125
      ],
      "type": "VEC2"
    },
    {
      "bufferView": 0,
      "byteOffset": 89592,
      "componentType": 5125,
      "count": 2160,
      "type": "SCALAR"
    }
  ],
  "asset": {
    "extras": {
      "author": "sujirour (https://sketchfab.com/sujirour)",
      "license": "CC-BY-4.0 (http://creativecommons.org/licenses/by/4.0/)",
      "source": "https://sketchfab.com/3d-models/old-oil-lamp-df670e9de0f945a2a3f5b1ef381baef7",
      "title": "Old Oil Lamp"
    },
    "generator": "Sketchfab-14.23.0",
    "version": "2.0"
  },
  "bufferViews": [
    {
      "buffer": 0,
      "byteLength": 98232,
      "name": "floatBufferViews",
      "target": 34963
    },
    {
      "buffer": 0,
      "byteLength": 46464,
      "byteOffset": 98232,
      "byteStride": 8,
      "name": "floatBufferViews",
      "target": 34962
    },
    {
      "buffer": 0,
      "byteLength": 139392,
      "byteOffset": 144696,
      "byteStride": 12,
      "name": "floatBufferViews",
      "target": 34962
    },
    {
      "buffer": 0,
      "byteLength": 92928,
      "byteOffset": 284088,
      "byteStride": 16,
      "name": "floatBufferViews",
      "target": 34962
    }
  ],
  "buffers": [
    {
      "byteLength": 377016,
      "uri": "scene.bin"
    }
  ],
  "images": [
    {
      "uri": "textures/lamp_mat_baseColor.png"
    },
    {
      "uri": "textures/lamp_mat_metallicRoughness.png"
    },
    {
      "uri": "textures/lamp_mat_normal.png"
    },
    {
      "uri": "textures/glass_mat_baseColor.png"
    },
    {
      "uri": "textures/glass_mat_metallicRoughness.png"
    },
    {
      "uri": "textures/glass_mat_normal.png"
    }
  ],
  "materials": [
    {
      "name": "lamp_mat",
      "normalTexture": {
        "index": 2
      },
      "pbrMetallicRoughness": {
        "baseColorTexture": {
          "index": 0
        },
        "metallicRoughnessTexture": {
          "index": 1
        }
      }
    },
    {
      "alphaMode": "BLEND",
      "doubleSided": true,
      "name": "glass_mat",
      "normalTexture": {
        "index": 5
      },
      "pbrMetallicRoughness": {
        "baseColorTexture": {
          "index": 3
        },
        "metallicRoughnessTexture": {
          "index": 4
        }
      }
    }
  ],
  "meshes": [
    {
      "name": "lamp_lamp_mat_0",
      "primitives": [
        {
          "attributes": {
            "NORMAL": 1,
            "POSITION": 0,
            "TANGENT": 2,
            "TEXCOORD_0": 3
          },
          "indices": 4,
          "material": 0,
          "mode": 4
        }
      ]
    },
    {
      "name": "glass_glass_mat_0",
      "primitives": [
        {
          "attributes": {
            "NORMAL": 6,
            "POSITION": 5,
            "TANGENT": 7,
            "TEXCOORD_0": 8
          },
          "indices": 9,
          "material": 1,
          "mode": 4
        }
      ]
    }
  ],
  "nodes": [
    {
      "children": [
        1
      ],
      "matrix": [
        1.0,
        0.0,
        0.0,
        0.0,
        0.0,
        2.220446049250313e-16,
        -1.0,
        0.0,
        0.0,
        1.0,
        2.220446049250313e-16,
        0.0,
        0.0,
        0.0,
        0.0,
        1.0
      ],
      "name": "Sketchfab_model"
    },
    {
      "children": [
        2
      ],
      "matrix": [
        0.009999999776482582,
        0.0,
        0.0,
        0.0,
        0.0,
        0.0,
        0.009999999776482582,
        0.0,
        0.0,
        -0.009999999776482582,
        0.0,
        0.0,
        0.0,
        0.0,
        0.0,
        1.0
      ],
      "name": "old oil lamp.fbx"
    },
    {
      "children": [
        3,
        5
      ],
      "name": "RootNode"
    },
    {
      "children": [
        4
      ],
      "name": "lamp"
    },
    {
      "mesh": 0,
      "name": "lamp_lamp_mat_0"
    },
    {
      "children": [
        6
      ],
      "name": "glass"
    },
    {
      "mesh": 1,
      "name": "glass_glass_mat_0"
    }
  ],
  "samplers": [
    {
      "magFilter": 9729,
      "minFilter": 9987,
      "wrapS": 10497,
      "wrapT": 10497
    }
  ],
  "scene": 0,
  "scenes": [
    {
      "name": "Sketchfab_Scene",
      "nodes": [
        0
      ]
    }
  ],
  "textures": [
    {
      "sampler": 0,
      "source": 0
    },
    {
      "sampler": 0,
      "source": 1
    },
    {
      "sampler": 0,
      "source": 2
    },
    {
      "sampler": 0,
      "source": 3
    },
    {
      "sampler": 0,
      "source": 4
    },
    {
      "sampler": 0,
      "source": 5
    }
  ]
}
